<?xml version="1.0" encoding="UTF-8" standalone="no"?>
<!DOCTYPE svg PUBLIC "-//W3C//DTD SVG 1.1//EN"
 "http://www.w3.org/Graphics/SVG/1.1/DTD/svg11.dtd">
<!-- Generated by graphviz version 2.47.3 (20210619.1520)
 -->
<!-- Title: dependencies Pages: 1 -->
<svg width="322pt" height="174pt"
 viewBox="0.00 0.00 322.00 173.80" xmlns="http://www.w3.org/2000/svg" xmlns:xlink="http://www.w3.org/1999/xlink">
<g id="graph0" class="graph" transform="scale(1 1) rotate(0) translate(4 169.8)">
<title>dependencies</title>
<polygon fill="white" stroke="transparent" points="-4,4 -4,-169.8 318,-169.8 318,4 -4,4"/>
<text text-anchor="middle" x="157" y="-8.2" font-family="sans-serif" font-size="14.00">dependencies</text>
<g id="clust1" class="cluster">
<title>cluster_UsuarioModule</title>
<polygon fill="none" stroke="black" stroke-dasharray="1,5" points="8,-32.8 8,-157.8 306,-157.8 306,-32.8 8,-32.8"/>
</g>
<g id="clust3" class="cluster">
<title>cluster_UsuarioModule_imports</title>
<polygon fill="none" stroke="black" points="184,-40.8 184,-92.8 298,-92.8 298,-40.8 184,-40.8"/>
</g>
<g id="clust6" class="cluster">
<title>cluster_UsuarioModule_providers</title>
<polygon fill="none" stroke="black" points="16,-40.8 16,-92.8 176,-92.8 176,-40.8 16,-40.8"/>
</g>
<!-- PrismaModule -->
<g id="node1" class="node">
<title>PrismaModule</title>
<polygon fill="#8dd3c7" stroke="black" points="290.43,-84.8 287.43,-88.8 266.43,-88.8 263.43,-84.8 191.57,-84.8 191.57,-48.8 290.43,-48.8 290.43,-84.8"/>
<text text-anchor="middle" x="241" y="-62.6" font-family="Times,serif" font-size="14.00">PrismaModule</text>
</g>
<!-- UsuarioModule -->
<g id="node2" class="node">
<title>UsuarioModule</title>
<polygon fill="#8dd3c7" stroke="black" points="219.87,-149.8 216.87,-153.8 195.87,-153.8 192.87,-149.8 116.13,-149.8 116.13,-113.8 219.87,-113.8 219.87,-149.8"/>
<text text-anchor="middle" x="168" y="-127.6" font-family="Times,serif" font-size="14.00">UsuarioModule</text>
</g>
<!-- PrismaModule&#45;&gt;UsuarioModule -->
<g id="edge1" class="edge">
<title>PrismaModule&#45;&gt;UsuarioModule</title>
<path fill="none" stroke="black" d="M205.86,-84.91C205.86,-84.91 205.86,-103.79 205.86,-103.79"/>
<polygon fill="black" stroke="black" points="202.36,-103.79 205.86,-113.79 209.36,-103.79 202.36,-103.79"/>
</g>
<!-- usuariosService -->
<g id="node3" class="node">
<title>usuariosService</title>
<ellipse fill="#fdb462" stroke="black" cx="96" cy="-66.8" rx="72.35" ry="18"/>
<text text-anchor="middle" x="96" y="-62.6" font-family="Times,serif" font-size="14.00">usuariosService</text>
</g>
<!-- usuariosService&#45;&gt;UsuarioModule -->
<g id="edge2" class="edge">
<title>usuariosService&#45;&gt;UsuarioModule</title>
<path fill="none" stroke="black" d="M142.12,-80.9C142.12,-80.9 142.12,-103.52 142.12,-103.52"/>
<polygon fill="black" stroke="black" points="138.62,-103.52 142.12,-113.52 145.62,-103.52 138.62,-103.52"/>
</g>
</g>
</svg>
