<?xml version="1.0" encoding="UTF-8" standalone="no"?>
<!DOCTYPE svg PUBLIC "-//W3C//DTD SVG 1.1//EN"
 "http://www.w3.org/Graphics/SVG/1.1/DTD/svg11.dtd">
<!-- Generated by graphviz version 2.47.3 (20210619.1520)
 -->
<!-- Title: dependencies Pages: 1 -->
<svg width="336pt" height="174pt"
 viewBox="0.00 0.00 336.00 173.80" xmlns="http://www.w3.org/2000/svg" xmlns:xlink="http://www.w3.org/1999/xlink">
<g id="graph0" class="graph" transform="scale(1 1) rotate(0) translate(4 169.8)">
<title>dependencies</title>
<polygon fill="white" stroke="transparent" points="-4,4 -4,-169.8 332,-169.8 332,4 -4,4"/>
<text text-anchor="middle" x="164" y="-8.2" font-family="sans-serif" font-size="14.00">dependencies</text>
<g id="clust1" class="cluster">
<title>cluster_SeguindoModule</title>
<polygon fill="none" stroke="black" stroke-dasharray="1,5" points="8,-32.8 8,-157.8 320,-157.8 320,-32.8 8,-32.8"/>
</g>
<g id="clust3" class="cluster">
<title>cluster_SeguindoModule_imports</title>
<polygon fill="none" stroke="black" points="198,-40.8 198,-92.8 312,-92.8 312,-40.8 198,-40.8"/>
</g>
<g id="clust6" class="cluster">
<title>cluster_SeguindoModule_providers</title>
<polygon fill="none" stroke="black" points="16,-40.8 16,-92.8 190,-92.8 190,-40.8 16,-40.8"/>
</g>
<!-- PrismaModule -->
<g id="node1" class="node">
<title>PrismaModule</title>
<polygon fill="#8dd3c7" stroke="black" points="304.43,-84.8 301.43,-88.8 280.43,-88.8 277.43,-84.8 205.57,-84.8 205.57,-48.8 304.43,-48.8 304.43,-84.8"/>
<text text-anchor="middle" x="255" y="-62.6" font-family="Times,serif" font-size="14.00">PrismaModule</text>
</g>
<!-- SeguindoModule -->
<g id="node2" class="node">
<title>SeguindoModule</title>
<polygon fill="#8dd3c7" stroke="black" points="235.44,-149.8 232.44,-153.8 211.44,-153.8 208.44,-149.8 122.56,-149.8 122.56,-113.8 235.44,-113.8 235.44,-149.8"/>
<text text-anchor="middle" x="179" y="-127.6" font-family="Times,serif" font-size="14.00">SeguindoModule</text>
</g>
<!-- PrismaModule&#45;&gt;SeguindoModule -->
<g id="edge1" class="edge">
<title>PrismaModule&#45;&gt;SeguindoModule</title>
<path fill="none" stroke="black" d="M220.5,-84.91C220.5,-84.91 220.5,-103.79 220.5,-103.79"/>
<polygon fill="black" stroke="black" points="217,-103.79 220.5,-113.79 224,-103.79 217,-103.79"/>
</g>
<!-- seguindosService -->
<g id="node3" class="node">
<title>seguindosService</title>
<ellipse fill="#fdb462" stroke="black" cx="103" cy="-66.8" rx="78.73" ry="18"/>
<text text-anchor="middle" x="103" y="-62.6" font-family="Times,serif" font-size="14.00">seguindosService</text>
</g>
<!-- seguindosService&#45;&gt;SeguindoModule -->
<g id="edge2" class="edge">
<title>seguindosService&#45;&gt;SeguindoModule</title>
<path fill="none" stroke="black" d="M152.2,-80.9C152.2,-80.9 152.2,-103.52 152.2,-103.52"/>
<polygon fill="black" stroke="black" points="148.7,-103.52 152.2,-113.52 155.7,-103.52 148.7,-103.52"/>
</g>
</g>
</svg>
