<?xml version="1.0" encoding="UTF-8" standalone="no"?>
<!DOCTYPE svg PUBLIC "-//W3C//DTD SVG 1.1//EN"
 "http://www.w3.org/Graphics/SVG/1.1/DTD/svg11.dtd">
<!-- Generated by graphviz version 2.47.3 (20210619.1520)
 -->
<!-- Title: dependencies Pages: 1 -->
<svg width="902pt" height="174pt"
 viewBox="0.00 0.00 902.00 173.80" xmlns="http://www.w3.org/2000/svg" xmlns:xlink="http://www.w3.org/1999/xlink">
<g id="graph0" class="graph" transform="scale(1 1) rotate(0) translate(4 169.8)">
<title>dependencies</title>
<polygon fill="white" stroke="transparent" points="-4,4 -4,-169.8 898,-169.8 898,4 -4,4"/>
<text text-anchor="middle" x="447" y="-8.2" font-family="sans-serif" font-size="14.00">dependencies</text>
<g id="clust1" class="cluster">
<title>cluster_AppModule</title>
<polygon fill="none" stroke="black" stroke-dasharray="1,5" points="8,-32.8 8,-157.8 886,-157.8 886,-32.8 8,-32.8"/>
</g>
<g id="clust3" class="cluster">
<title>cluster_AppModule_imports</title>
<polygon fill="none" stroke="black" points="154,-40.8 154,-92.8 878,-92.8 878,-40.8 154,-40.8"/>
</g>
<g id="clust6" class="cluster">
<title>cluster_AppModule_providers</title>
<polygon fill="none" stroke="black" points="16,-40.8 16,-92.8 146,-92.8 146,-40.8 16,-40.8"/>
</g>
<!-- AuthModule -->
<g id="node1" class="node">
<title>AuthModule</title>
<polygon fill="#8dd3c7" stroke="black" points="869.55,-84.8 866.55,-88.8 845.55,-88.8 842.55,-84.8 782.45,-84.8 782.45,-48.8 869.55,-48.8 869.55,-84.8"/>
<text text-anchor="middle" x="826" y="-62.6" font-family="Times,serif" font-size="14.00">AuthModule</text>
</g>
<!-- AppModule -->
<g id="node7" class="node">
<title>AppModule</title>
<polygon fill="#8dd3c7" stroke="black" points="493.66,-149.8 490.66,-153.8 469.66,-153.8 466.66,-149.8 410.34,-149.8 410.34,-113.8 493.66,-113.8 493.66,-149.8"/>
<text text-anchor="middle" x="452" y="-127.6" font-family="Times,serif" font-size="14.00">AppModule</text>
</g>
<!-- AuthModule&#45;&gt;AppModule -->
<g id="edge1" class="edge">
<title>AuthModule&#45;&gt;AppModule</title>
<path fill="none" stroke="black" d="M826,-85.09C826,-107.01 826,-140.8 826,-140.8 826,-140.8 503.81,-140.8 503.81,-140.8"/>
<polygon fill="black" stroke="black" points="503.81,-137.3 493.81,-140.8 503.81,-144.3 503.81,-137.3"/>
</g>
<!-- PrismaModule -->
<g id="node2" class="node">
<title>PrismaModule</title>
<polygon fill="#8dd3c7" stroke="black" points="764.43,-84.8 761.43,-88.8 740.43,-88.8 737.43,-84.8 665.57,-84.8 665.57,-48.8 764.43,-48.8 764.43,-84.8"/>
<text text-anchor="middle" x="715" y="-62.6" font-family="Times,serif" font-size="14.00">PrismaModule</text>
</g>
<!-- PrismaModule&#45;&gt;AppModule -->
<g id="edge2" class="edge">
<title>PrismaModule&#45;&gt;AppModule</title>
<path fill="none" stroke="black" d="M715,-84.91C715,-104.14 715,-131.8 715,-131.8 715,-131.8 503.67,-131.8 503.67,-131.8"/>
<polygon fill="black" stroke="black" points="503.67,-128.3 493.67,-131.8 503.67,-135.3 503.67,-128.3"/>
</g>
<!-- SeguidoresModule -->
<g id="node3" class="node">
<title>SeguidoresModule</title>
<polygon fill="#8dd3c7" stroke="black" points="647.76,-84.8 644.76,-88.8 623.76,-88.8 620.76,-84.8 526.24,-84.8 526.24,-48.8 647.76,-48.8 647.76,-84.8"/>
<text text-anchor="middle" x="587" y="-62.6" font-family="Times,serif" font-size="14.00">SeguidoresModule</text>
</g>
<!-- SeguidoresModule&#45;&gt;AppModule -->
<g id="edge3" class="edge">
<title>SeguidoresModule&#45;&gt;AppModule</title>
<path fill="none" stroke="black" d="M587,-84.83C587,-101.2 587,-122.8 587,-122.8 587,-122.8 503.97,-122.8 503.97,-122.8"/>
<polygon fill="black" stroke="black" points="503.97,-119.3 493.97,-122.8 503.97,-126.3 503.97,-119.3"/>
</g>
<!-- SeguindoModule -->
<g id="node4" class="node">
<title>SeguindoModule</title>
<polygon fill="#8dd3c7" stroke="black" points="508.44,-84.8 505.44,-88.8 484.44,-88.8 481.44,-84.8 395.56,-84.8 395.56,-48.8 508.44,-48.8 508.44,-84.8"/>
<text text-anchor="middle" x="452" y="-62.6" font-family="Times,serif" font-size="14.00">SeguindoModule</text>
</g>
<!-- SeguindoModule&#45;&gt;AppModule -->
<g id="edge4" class="edge">
<title>SeguindoModule&#45;&gt;AppModule</title>
<path fill="none" stroke="black" d="M452,-84.91C452,-84.91 452,-103.79 452,-103.79"/>
<polygon fill="black" stroke="black" points="448.5,-103.79 452,-113.79 455.5,-103.79 448.5,-103.79"/>
</g>
<!-- TweetModule -->
<g id="node5" class="node">
<title>TweetModule</title>
<polygon fill="#8dd3c7" stroke="black" points="378.03,-84.8 375.03,-88.8 354.03,-88.8 351.03,-84.8 283.97,-84.8 283.97,-48.8 378.03,-48.8 378.03,-84.8"/>
<text text-anchor="middle" x="331" y="-62.6" font-family="Times,serif" font-size="14.00">TweetModule</text>
</g>
<!-- TweetModule&#45;&gt;AppModule -->
<g id="edge5" class="edge">
<title>TweetModule&#45;&gt;AppModule</title>
<path fill="none" stroke="black" d="M331,-84.83C331,-101.2 331,-122.8 331,-122.8 331,-122.8 400.02,-122.8 400.02,-122.8"/>
<polygon fill="black" stroke="black" points="400.02,-126.3 410.02,-122.8 400.02,-119.3 400.02,-126.3"/>
</g>
<!-- UsuarioModule -->
<g id="node6" class="node">
<title>UsuarioModule</title>
<polygon fill="#8dd3c7" stroke="black" points="265.87,-84.8 262.87,-88.8 241.87,-88.8 238.87,-84.8 162.13,-84.8 162.13,-48.8 265.87,-48.8 265.87,-84.8"/>
<text text-anchor="middle" x="214" y="-62.6" font-family="Times,serif" font-size="14.00">UsuarioModule</text>
</g>
<!-- UsuarioModule&#45;&gt;AppModule -->
<g id="edge6" class="edge">
<title>UsuarioModule&#45;&gt;AppModule</title>
<path fill="none" stroke="black" d="M214,-84.91C214,-104.14 214,-131.8 214,-131.8 214,-131.8 400.27,-131.8 400.27,-131.8"/>
<polygon fill="black" stroke="black" points="400.27,-135.3 410.27,-131.8 400.27,-128.3 400.27,-135.3"/>
</g>
<!-- AppService -->
<g id="node8" class="node">
<title>AppService</title>
<ellipse fill="#fdb462" stroke="black" cx="81" cy="-66.8" rx="56.74" ry="18"/>
<text text-anchor="middle" x="81" y="-62.6" font-family="Times,serif" font-size="14.00">AppService</text>
</g>
<!-- AppService&#45;&gt;AppModule -->
<g id="edge7" class="edge">
<title>AppService&#45;&gt;AppModule</title>
<path fill="none" stroke="black" d="M81,-85.09C81,-107.01 81,-140.8 81,-140.8 81,-140.8 400.16,-140.8 400.16,-140.8"/>
<polygon fill="black" stroke="black" points="400.16,-144.3 410.16,-140.8 400.16,-137.3 400.16,-144.3"/>
</g>
</g>
</svg>
