<?xml version="1.0" encoding="UTF-8" standalone="no"?>
<!DOCTYPE svg PUBLIC "-//W3C//DTD SVG 1.1//EN"
 "http://www.w3.org/Graphics/SVG/1.1/DTD/svg11.dtd">
<!-- Generated by graphviz version 2.47.3 (20210619.1520)
 -->
<!-- Title: dependencies Pages: 1 -->
<svg width="308pt" height="174pt"
 viewBox="0.00 0.00 308.00 173.80" xmlns="http://www.w3.org/2000/svg" xmlns:xlink="http://www.w3.org/1999/xlink">
<g id="graph0" class="graph" transform="scale(1 1) rotate(0) translate(4 169.8)">
<title>dependencies</title>
<polygon fill="white" stroke="transparent" points="-4,4 -4,-169.8 304,-169.8 304,4 -4,4"/>
<text text-anchor="middle" x="150" y="-8.2" font-family="sans-serif" font-size="14.00">dependencies</text>
<g id="clust1" class="cluster">
<title>cluster_TweetModule</title>
<polygon fill="none" stroke="black" stroke-dasharray="1,5" points="8,-32.8 8,-157.8 292,-157.8 292,-32.8 8,-32.8"/>
</g>
<g id="clust3" class="cluster">
<title>cluster_TweetModule_imports</title>
<polygon fill="none" stroke="black" points="170,-40.8 170,-92.8 284,-92.8 284,-40.8 170,-40.8"/>
</g>
<g id="clust6" class="cluster">
<title>cluster_TweetModule_providers</title>
<polygon fill="none" stroke="black" points="16,-40.8 16,-92.8 162,-92.8 162,-40.8 16,-40.8"/>
</g>
<!-- PrismaModule -->
<g id="node1" class="node">
<title>PrismaModule</title>
<polygon fill="#8dd3c7" stroke="black" points="276.43,-84.8 273.43,-88.8 252.43,-88.8 249.43,-84.8 177.57,-84.8 177.57,-48.8 276.43,-48.8 276.43,-84.8"/>
<text text-anchor="middle" x="227" y="-62.6" font-family="Times,serif" font-size="14.00">PrismaModule</text>
</g>
<!-- TweetModule -->
<g id="node2" class="node">
<title>TweetModule</title>
<polygon fill="#8dd3c7" stroke="black" points="205.03,-149.8 202.03,-153.8 181.03,-153.8 178.03,-149.8 110.97,-149.8 110.97,-113.8 205.03,-113.8 205.03,-149.8"/>
<text text-anchor="middle" x="158" y="-127.6" font-family="Times,serif" font-size="14.00">TweetModule</text>
</g>
<!-- PrismaModule&#45;&gt;TweetModule -->
<g id="edge1" class="edge">
<title>PrismaModule&#45;&gt;TweetModule</title>
<path fill="none" stroke="black" d="M191.52,-84.91C191.52,-84.91 191.52,-103.79 191.52,-103.79"/>
<polygon fill="black" stroke="black" points="188.02,-103.79 191.52,-113.79 195.02,-103.79 188.02,-103.79"/>
</g>
<!-- tweetsService -->
<g id="node3" class="node">
<title>tweetsService</title>
<ellipse fill="#fdb462" stroke="black" cx="89" cy="-66.8" rx="64.82" ry="18"/>
<text text-anchor="middle" x="89" y="-62.6" font-family="Times,serif" font-size="14.00">tweetsService</text>
</g>
<!-- tweetsService&#45;&gt;TweetModule -->
<g id="edge2" class="edge">
<title>tweetsService&#45;&gt;TweetModule</title>
<path fill="none" stroke="black" d="M132.2,-80.27C132.2,-80.27 132.2,-103.66 132.2,-103.66"/>
<polygon fill="black" stroke="black" points="128.7,-103.66 132.2,-113.66 135.7,-103.66 128.7,-103.66"/>
</g>
</g>
</svg>
